<?xml version="1.0" encoding="utf-8"?>
<!-- Generator: Adobe Illustrator 23.0.2, SVG Export Plug-In . SVG Version: 6.00 Build 0)  -->
<svg version="1.1" id="Capa_1" xmlns="http://www.w3.org/2000/svg" xmlns:xlink="http://www.w3.org/1999/xlink" x="0px" y="0px"
	 viewBox="0 0 512 512" style="enable-background:new 0 0 512 512;" xml:space="preserve">
<g>
	<path d="M489,101.3h-80.9V86c0-0.2,0-0.4,0-0.6c0-0.2,0-0.3,0-0.5V25.6c0-12.7-10.3-23-23-23H23c-12.7,0-23,10.3-23,23v362.1
		c0,12.7,10.3,23,23,23h80.9v75.7c0,12.7,10.3,23,23,23H489c12.7,0,23-10.3,23-23V124.3C512,111.6,501.7,101.3,489,101.3z
		 M385.1,17.6c4.4,0,8,3.6,8,8v59.3c0,0.2,0,0.4,0,0.6c0,0.2,0,0.3,0,0.5v15.3H146.9l31.2-8.4c5.6-1.5,9.8-5.7,11.3-11.3
		c1.5-5.6-0.1-11.3-4.1-15.4l-2.9-2.9l45.7-45.7H385.1z M142.1,68.1c-2.9-2.9-7.7-2.9-10.6,0l-11.1,11.1c0,0-0.1-0.1-0.1-0.1
		L131.8,36c0-0.1,0.1-0.5,0.7-0.7c0.1,0,0.2,0,0.3,0c0.3,0,0.5,0.2,0.6,0.3l41.3,41.3c0.1,0.1,0.4,0.4,0.2,0.9h0
		c-0.1,0.5-0.5,0.6-0.7,0.7L131.1,90c0,0-0.1-0.1-0.1-0.1l11.1-11.1C145,75.8,145,71,142.1,68.1z M178.4,17.6h28.5l-35.1,35.1
		l-14.2-14.2L178.4,17.6z M15,25.6c0-4.4,3.6-8,8-8h134.2l-10.3,10.3L144,25c-4.1-4.1-9.8-5.6-15.4-4.1c-5.6,1.5-9.8,5.7-11.3,11.3
		L106,74.4c-1-0.1-2-0.1-3-0.1c-8.8,0-17.1,3.4-23.3,9.7c-6.2,6.2-9.7,14.5-9.7,23.3c0,0.9,0,1.7,0.1,2.5l-41.6,11.2
		c-5.6,1.5-9.8,5.7-11.3,11.3c-1.5,5.6,0.1,11.3,4.1,15.4l2.9,2.9l-9.3,9.3V25.6z M63.9,146.4c1.5,1.5,3.4,2.2,5.3,2.2
		s3.8-0.7,5.3-2.2l11.1-11.1c0.2,0.1,0.4,0.2,0.5,0.3l-11.3,42.3c0,0.1-0.1,0.5-0.7,0.7c-0.5,0.1-0.8-0.1-0.9-0.2L32,137
		c-0.1-0.1-0.4-0.4-0.2-0.9c0.1-0.5,0.5-0.6,0.7-0.7l42.3-11.3c0.1,0.2,0.2,0.4,0.3,0.5l-11.1,11.1
		C60.9,138.7,60.9,143.4,63.9,146.4z M15,181l19.9-19.9l14.2,14.2L15,209.5V181z M103.9,395.7H23c-4.4,0-8-3.6-8-8V230.7l44.7-44.7
		l2.9,2.9c3,3,7,4.7,11.2,4.7c1.4,0,2.8-0.2,4.2-0.6c5.6-1.5,9.8-5.7,11.3-11.3l11.2-41.6c0.8,0.1,1.7,0.1,2.5,0.1
		c0.3,0,0.6,0,0.9,0V395.7z M103.9,124.3v0.9c-0.3,0-0.6,0-0.9,0c-4.8,0-9.3-1.9-12.7-5.3c-3.4-3.4-5.3-7.9-5.3-12.7
		c0-4.8,1.9-9.3,5.3-12.7c3.4-3.4,7.9-5.3,12.7-5.3c4.8,0,9.3,1.9,12.7,5.3v0c2.2,2.2,3.7,4.8,4.5,7.7
		C110.8,105.1,103.9,113.9,103.9,124.3z M497,486.4c0,4.4-3.6,8-8,8H126.9c-4.4,0-8-3.6-8-8V124.3c0-4.4,3.6-8,8-8H489
		c4.4,0,8,3.6,8,8V486.4z"/>
	<path d="M473.5,127.1L473.5,127.1l-144.8,0c-7,0-12.7,5.7-12.7,12.7v144.8c0,7,5.7,12.7,12.7,12.7H456h11.3h6.2
		c7,0,12.7-5.7,12.7-12.7V139.8C486.2,132.8,480.5,127.1,473.5,127.1z M471.2,282.2h-7.5h-7.4H331.1V142.1h140.1V282.2z"/>
	<path d="M370.3,265.9h61.6c12.7,0,23-10.3,23-23v-61.6c0-12.7-10.3-23-23-23h-61.6c-12.7,0-23,10.3-23,23v61.6
		C347.3,255.6,357.7,265.9,370.3,265.9z M362.3,181.4c0-4.4,3.6-8,8-8h61.6c4.4,0,8,3.6,8,8v61.6c0,4.4-3.6,8-8,8h-61.6
		c-4.4,0-8-3.6-8-8V181.4z"/>
	<path d="M387,240.9h28.3c8.1,0,14.6-6.6,14.6-14.6V198c0-8.1-6.6-14.6-14.6-14.6H387c-8.1,0-14.6,6.6-14.6,14.6v28.3
		C372.4,234.3,378.9,240.9,387,240.9z M387.4,198.4h27.5v27.5h-27.5V198.4z"/>
	<path d="M287.1,127.1L287.1,127.1l-144.8,0c-7,0-12.7,5.7-12.7,12.7v144.8c0,7,5.7,12.7,12.7,12.7h144.8c7,0,12.7-5.7,12.7-12.7
		V139.8C299.8,132.8,294.1,127.1,287.1,127.1z M144.7,282.2V142.1h140.1v140.1H144.7z"/>
	<path d="M287.1,313.5H142.4c-7,0-12.7,5.7-12.7,12.7v144.8c0,7,5.7,12.7,12.7,12.7h144.8c7,0,12.7-5.7,12.7-12.7v-50.6V419v-92.9
		C299.8,319.1,294.1,313.5,287.1,313.5z M284.8,468.6H144.7V328.5h140.1V419v1.4V468.6z"/>
	<path d="M473.5,313.5H328.7c-7,0-12.7,5.7-12.7,12.7v144.8c0,7,5.7,12.7,12.7,12.7h144.8c7,0,12.7-5.7,12.7-12.7V326.1
		C486.2,319.1,480.5,313.5,473.5,313.5z M471.2,468.6L471.2,468.6H331.1V328.5h140.1V468.6z"/>
	<path d="M214.7,158.4c-29.7,0-53.8,24.1-53.8,53.8c0,29.7,24.1,53.8,53.8,53.8c29.7,0,53.8-24.1,53.8-53.8
		C268.5,182.5,244.4,158.4,214.7,158.4z M214.7,250.9c-7.3,0-14-2-19.9-5.5l34.7-34.7c2.9-2.9,2.9-7.7,0-10.6
		c-2.9-2.9-7.7-2.9-10.6,0l-35.2,35.2c-4.9-6.5-7.8-14.5-7.8-23.2l0,0c0-20.9,16.5-37.9,37.2-38.7l-24,24c-2.9,2.9-2.9,7.7,0,10.6
		c1.5,1.5,3.4,2.2,5.3,2.2s3.8-0.7,5.3-2.2l31.1-31.1c9.7,4.5,17.3,12.9,20.7,23.2l-27.3,27.3c-2.9,2.9-2.9,7.7,0,10.6
		c1.5,1.5,3.4,2.2,5.3,2.2c1.9,0,3.8-0.7,5.3-2.2l17.8-17.8C249,237.7,233.4,250.9,214.7,250.9z"/>
	<path d="M387.6,452.5h27c22.2,0,40.3-18.1,40.3-40.3v-27c0-22.2-18.1-40.3-40.3-40.3h-27c-22.2,0-40.3,18.1-40.3,40.3v27
		C347.3,434.4,365.4,452.5,387.6,452.5z M439.9,412.2c0,13.9-11.3,25.3-25.3,25.3h-8.1l33.4-33.4V412.2z M439.8,383l-54.4,54.4
		c-3.4-0.3-6.7-1.3-9.6-2.8l61.1-61.1C438.5,376.3,439.5,379.5,439.8,383z M416.8,360c3.4,0.3,6.7,1.3,9.6,2.8l-61.1,61.1
		c-1.5-2.9-2.5-6.1-2.8-9.6L416.8,360z M362.3,385.2c0-13.9,11.3-25.3,25.3-25.3h8.1l-33.4,33.4V385.2z"/>
	<path d="M235.1,344.9c-7.5,0-14.6,2.5-20.3,7.1c-5.8-4.6-12.9-7.1-20.3-7.1c-18.5,0-33.5,15.6-33.5,34.8c0,6.8,1.9,13.4,5.4,19
		c-3.5,5.6-5.4,12.2-5.4,19c0,19.2,15,34.8,33.5,34.8c7.5,0,14.6-2.5,20.3-7.1c5.8,4.6,12.9,7.1,20.3,7.1
		c18.5,0,33.5-15.6,33.5-34.8c0-6.8-1.9-13.4-5.4-19c3.5-5.6,5.4-12.2,5.4-19C268.5,360.5,253.5,344.9,235.1,344.9z M235.1,437.5
		c-5.6,0-10.8-2.7-14.3-7.3c-1.4-1.9-3.6-3-6-3c-2.3,0-4.6,1.1-6,3c-3.5,4.7-8.8,7.3-14.3,7.3c-10.2,0-18.5-8.9-18.5-19.8
		c0-5.2,1.9-10.2,5.3-13.9c2.6-2.9,2.6-7.3,0-10.2c-3.4-3.7-5.3-8.7-5.3-13.9c0-10.9,8.3-19.8,18.5-19.8c5.6,0,10.8,2.7,14.3,7.3
		c1.4,1.9,3.6,3,6,3c2.3,0,4.6-1.1,6-3c3.5-4.7,8.8-7.3,14.3-7.3c10.2,0,18.5,8.9,18.5,19.8c0,5.2-1.9,10.2-5.3,13.9
		c-2.6,2.9-2.6,7.3,0,10.2c3.4,3.7,5.3,8.7,5.3,13.9C253.5,428.6,245.2,437.5,235.1,437.5z"/>
	<path d="M197.2,388.9c4.3,0,7.7-3.5,7.7-7.8c0-4.3-3.5-7.7-7.7-7.7c-4.3,0-7.8,3.5-7.8,7.7C189.4,385.4,192.9,388.9,197.2,388.9z"
		/>
	<path d="M232.3,373.4c-4.3,0-7.7,3.5-7.7,7.7c0,4.3,3.5,7.8,7.7,7.8c4.3,0,7.8-3.5,7.8-7.8C240.1,376.8,236.6,373.4,232.3,373.4z"
		/>
	<path d="M200.3,409.2c-4-1.6-8.5,0.2-10.1,4.2c-1.6,4,0.2,8.5,4.2,10.1c4,1.6,8.5-0.2,10.1-4.2
		C206.1,415.4,204.2,410.8,200.3,409.2z"/>
	<path d="M231,408.6c-4.2,0.7-7.1,4.7-6.4,8.9c0.7,4.2,4.7,7.1,8.9,6.4c4.2-0.7,7.1-4.7,6.4-8.9C239.2,410.8,235.2,407.9,231,408.6z
		"/>
</g>
</svg>
