<svg id="Capa_1" data-name="Capa 1" xmlns="http://www.w3.org/2000/svg" viewBox="0 0 250 250"><defs><style>.cls-1{fill:#fdc34e;}.cls-2{fill:#153e49;}</style></defs><circle class="cls-1" cx="125" cy="125" r="125"/><path class="cls-2" d="M166.84,74.2a9.27,9.27,0,1,0,9.26,9.27A9.27,9.27,0,0,0,166.84,74.2Z"/><path class="cls-2" d="M125.65,86.08A38.92,38.92,0,1,0,164.57,125,39,39,0,0,0,125.65,86.08Zm0,63.85A24.93,24.93,0,1,1,150.58,125,25,25,0,0,1,125.65,149.93Z"/><path class="cls-2" d="M156.54,204H93.45A47.51,47.51,0,0,1,46,156.55V93.45A47.51,47.51,0,0,1,93.45,46h63.09A47.52,47.52,0,0,1,204,93.45v63.1A47.52,47.52,0,0,1,156.54,204ZM93.45,60.85a32.64,32.64,0,0,0-32.6,32.6v63.1a32.64,32.64,0,0,0,32.6,32.6h63.09a32.65,32.65,0,0,0,32.61-32.6V93.45a32.65,32.65,0,0,0-32.61-32.6Z"/></svg>